<svg width="53" height="41" viewBox="0 0 53 41" fill="none" xmlns="http://www.w3.org/2000/svg">
<g clip-path="url(#clip0_2197_30178)">
<path d="M49.7395 6.7733C48.8798 6.75975 48.812 6.64382 49.1222 5.8172C49.4459 4.95595 49.7817 4.09771 50.1174 3.22742C49.086 3.22742 48.1465 3.18075 47.2145 3.24097C46.3111 3.29819 46.287 3.33132 46.552 2.43092C46.7869 1.63592 47.0624 0.852966 47.3395 0.00526707C44.6895 -0.226608 36.3103 2.46555 34.7309 4.00285C38.1518 3.07987 41.4929 1.80606 45.1908 1.4989C44.0044 5.11254 42.8661 8.62529 42.0756 12.2615L42.0003 12.6214C41.9792 12.7253 41.9566 12.8292 41.9341 12.933L41.663 14.2294L41.1044 16.6822C41.0939 16.7274 41.0833 16.774 41.0743 16.8192C40.7506 18.3505 40.3516 19.8727 40.0504 21.401C39.7915 22.7411 39.7674 22.7877 38.3776 22.9067C35.3241 23.1581 32.3654 23.8101 29.601 25.1652C28.7955 25.5657 28.0532 26.0987 27.2808 26.57C33.3863 26.0385 39.1756 27.1919 44.9514 28.8662C45.0102 28.5274 45.0448 28.1796 45.1351 27.8468C45.888 25.0884 46.6544 22.3345 47.3937 19.5656C47.3937 19.5656 49.5528 13.6272 50.2108 12.0477C50.256 11.9528 50.2981 11.8535 50.3403 11.7466C50.7062 10.8853 51.0931 10.0241 51.5162 9.18691C51.9243 8.39643 52.4031 7.64359 52.912 6.76427C51.7692 6.78234 50.7543 6.79589 49.7395 6.7733ZM31.1669 25.2932H31.197C31.179 25.3158 31.1669 25.3609 31.1669 25.2932ZM31.2196 25.3082C31.2213 25.3003 31.2213 25.2921 31.2196 25.2842C32.4829 25.0342 33.1153 24.5193 35.0591 24.2784C36.7726 24.1067 38.4996 24.0811 40.2221 24.0224C40.6347 24.0088 40.8575 23.9245 40.9554 23.4668C41.2158 22.2623 41.5426 21.0577 41.8377 19.8532C42.0831 18.8579 42.324 17.8627 42.5785 16.8132L43.4066 13.7265L43.5015 13.3742L43.7349 12.5039V12.4949C43.7665 12.4136 43.7936 12.3172 43.8252 12.2043C44.2468 10.6685 44.6503 9.12518 45.0764 7.58788C45.4227 6.33365 45.7901 5.08543 46.165 3.77248L47.9447 4.35217C47.4027 5.73589 46.8456 6.9841 46.4195 8.27447C45.7449 10.3162 45.1487 12.385 44.5359 14.4478C43.9231 16.5105 43.3313 18.5297 42.7547 20.5819C42.4008 21.8497 42.1253 23.1416 41.7775 24.4094C41.7263 24.5885 41.4658 24.8294 41.2956 24.8355C40.5428 24.858 39.7764 24.7692 39.0191 24.7903C37.1008 24.8475 35.1815 24.9273 33.2613 25.0297C32.5687 25.0704 31.8927 25.2149 31.2121 25.3113L31.2196 25.3082ZM48.8436 11.5523L48.3227 12.8186L46.7447 17.4636C46.7062 17.5365 46.6739 17.6126 46.6483 17.691C45.8262 20.481 44.9921 23.262 44.1986 26.0671C43.8402 27.3334 43.8628 27.2084 42.5935 26.9916C42.51 26.9808 42.4272 26.9657 42.3451 26.9464C40.5564 26.4375 38.8143 26.0807 37.0255 25.5732L42.8495 26.4767C42.9128 26.3095 42.9775 26.1755 43.0181 26.025C43.7951 23.387 44.5701 20.7486 45.3429 18.1096C45.4998 17.6275 45.629 17.1369 45.7299 16.64L46.3623 14.255C47.0142 12.1983 47.6346 10.131 48.2956 8.08174C48.3739 7.83933 48.6343 7.50055 48.8376 7.47947C49.9639 7.37106 50.3599 7.9643 49.9277 8.96558C49.5618 9.81177 49.211 10.6655 48.8451 11.5554L48.8436 11.5523Z" fill="url(#paint0_linear_2197_30178)"/>
<path d="M0 6.78023C0.508921 7.65954 0.987727 8.41238 1.39577 9.20287C1.82489 10.034 2.20582 10.8953 2.5717 11.7625C2.61386 11.8619 2.65753 11.9613 2.70119 12.0637C3.35918 13.6296 5.51832 19.5695 5.51832 19.5695C6.2546 22.3324 7.02401 25.0863 7.77685 27.8507C7.86719 28.1835 7.90182 28.5313 7.96054 28.8701C13.7439 27.1958 19.5257 26.0424 25.6312 26.5739C24.8588 26.1026 24.1165 25.5696 23.311 25.1691C20.5465 23.814 17.5894 23.1575 14.5343 22.9106C13.1461 22.7977 13.1205 22.751 12.8615 21.4049C12.5604 19.8691 12.1689 18.3544 11.8452 16.8246C11.8362 16.7795 11.8256 16.7328 11.8151 16.6876L11.2505 14.2333L10.9794 12.9445C10.9568 12.8406 10.9358 12.7367 10.9132 12.6328L10.8409 12.2654C10.0489 8.6292 8.91063 5.11494 7.72415 1.5013C11.4221 1.80244 14.7632 3.08227 18.1841 4.00525C16.6047 2.46946 8.22554 -0.222701 5.57102 0.00917339C5.84807 0.856873 6.12361 1.63983 6.3585 2.43483C6.6235 3.33824 6.60091 3.3021 5.696 3.24488C4.76398 3.18466 3.82443 3.23133 2.79304 3.23133C3.13332 4.10162 3.46307 4.96437 3.79281 5.82111C4.10449 6.64773 4.03523 6.77119 3.17548 6.77119C2.16065 6.79378 1.14582 6.78023 0 6.78023ZM21.7255 25.2911H21.7556C21.7451 25.3588 21.736 25.3137 21.7255 25.2911ZM19.6642 25.0321C17.746 24.9317 15.8267 24.8519 13.9065 24.7927C13.1536 24.7716 12.3872 24.8605 11.6299 24.8379C11.4597 24.8379 11.1993 24.5909 11.1481 24.4118C10.8003 23.1425 10.5247 21.8521 10.1709 20.5843C9.60023 18.5321 8.99645 16.4904 8.38966 14.4502C7.78287 12.41 7.18511 10.3201 6.50605 8.27687C6.07994 6.9865 5.52284 5.73829 4.9808 4.3621L6.76051 3.77338C7.13543 5.08633 7.50281 6.33304 7.84912 7.58878C8.28125 9.12608 8.67875 10.6694 9.10034 12.2052C9.13196 12.3181 9.15906 12.4145 9.19068 12.4958V12.5078L9.42406 13.3781L9.51892 13.7305L10.347 16.8171C10.6015 17.8711 10.8424 18.8618 11.0878 19.8571C11.389 21.0616 11.7097 22.2662 11.9702 23.4707C12.068 23.9224 12.2909 24.0128 12.7034 24.0263C14.4259 24.085 16.153 24.1106 17.8664 24.2823C19.8103 24.5232 20.4426 25.0351 21.7059 25.2881C21.7043 25.296 21.7043 25.3042 21.7059 25.3122C21.0223 25.2128 20.3478 25.0682 19.6642 25.0291V25.0321ZM4.06534 11.5502C3.69946 10.6604 3.34864 9.80665 2.98276 8.96045C2.55966 7.95917 2.95264 7.37346 4.07889 7.47434C4.28216 7.49392 4.54264 7.8327 4.62094 8.07662C5.28193 10.1304 5.90227 12.1916 6.55423 14.2544L7.18662 16.6394C7.28816 17.1362 7.41735 17.6267 7.57358 18.109C8.34649 20.7459 9.12092 23.3838 9.89685 26.0228C9.9375 26.1734 10.0022 26.3044 10.0655 26.4745L15.8895 25.5711C14.1007 26.0786 12.3586 26.4354 10.5714 26.9443C10.5006 26.9639 10.3967 26.9774 10.3215 26.9895C9.05216 27.2063 9.07475 27.3313 8.71639 26.065C7.92742 23.2659 7.08875 20.4789 6.26665 17.6889C6.24131 17.6109 6.21011 17.5349 6.1733 17.4615L4.59384 12.8165L4.06534 11.5502Z" fill="url(#paint1_linear_2197_30178)"/>
<path d="M21.5313 16.9461C21.532 17.0376 21.5688 17.1252 21.6335 17.1901C21.6984 17.2549 21.7861 17.2916 21.8776 17.2924C21.9711 17.2925 22.0608 17.2565 22.1285 17.1919C22.1961 17.1275 22.2363 17.0394 22.2405 16.9461C22.2397 16.8994 22.2296 16.8533 22.211 16.8106C22.1923 16.7678 22.1652 16.7292 22.1315 16.697C22.0977 16.6648 22.0578 16.6397 22.0143 16.6229C21.9707 16.6062 21.9243 16.5984 21.8776 16.5998C21.8318 16.599 21.7865 16.6073 21.744 16.6245C21.7017 16.6416 21.6632 16.6671 21.631 16.6994C21.5986 16.7317 21.5732 16.7702 21.556 16.8125C21.5388 16.855 21.5305 16.9003 21.5313 16.9461Z" fill="white"/>
<path d="M20.1055 10.1485C20.1557 10.1485 20.2046 10.1336 20.2461 10.1058C20.2879 10.0779 20.3202 10.0383 20.3393 9.99198C20.3585 9.94567 20.3634 9.89473 20.3535 9.84563C20.3436 9.79652 20.3193 9.75145 20.2838 9.71613C20.2483 9.68082 20.2031 9.65685 20.154 9.64726C20.1048 9.63767 20.0539 9.64289 20.0076 9.66227C19.9614 9.68165 19.9221 9.71429 19.8944 9.75609C19.8669 9.79789 19.8523 9.84694 19.8526 9.89703C19.8521 9.9303 19.8584 9.9633 19.8711 9.99409C19.8836 10.0249 19.9022 10.0528 19.9259 10.0763C19.9494 10.0997 19.9775 10.1182 20.0084 10.1306C20.0393 10.143 20.0722 10.1491 20.1055 10.1485Z" fill="white"/>
<path d="M20.1053 17.1046C20.1699 17.1063 20.2325 17.0823 20.2796 17.0381C20.3266 16.9938 20.3543 16.9328 20.3567 16.8682C20.3594 16.8335 20.3549 16.7985 20.3435 16.7655C20.332 16.7327 20.3138 16.7025 20.2902 16.6769C20.2665 16.6513 20.2378 16.6309 20.2059 16.6169C20.1739 16.6029 20.1393 16.5957 20.1045 16.5957C20.0696 16.5957 20.0351 16.6029 20.0032 16.6169C19.9713 16.6309 19.9425 16.6513 19.9189 16.6769C19.8952 16.7025 19.877 16.7327 19.8656 16.7655C19.8541 16.7985 19.8496 16.8335 19.8523 16.8682C19.8547 16.9331 19.8826 16.9944 19.93 17.0387C19.9774 17.0829 20.0404 17.1067 20.1053 17.1046Z" fill="white"/>
<path d="M29.0802 11.2378C28.984 11.2386 28.892 11.277 28.8239 11.3448C28.7559 11.4127 28.717 11.5045 28.7158 11.6007C28.7232 11.6931 28.7645 11.7796 28.8318 11.8436C28.8989 11.9075 28.9874 11.9443 29.0802 11.947C29.1708 11.9433 29.2568 11.9056 29.321 11.8414C29.3851 11.7773 29.4227 11.6913 29.4265 11.6007C29.4277 11.5541 29.4197 11.5077 29.4029 11.4642C29.3862 11.4207 29.361 11.381 29.3288 11.3473C29.2966 11.3135 29.258 11.2865 29.2154 11.2677C29.1728 11.2489 29.1267 11.2388 29.0802 11.2378Z" fill="white"/>
<path d="M32.4405 16.6197C32.4072 16.6192 32.3741 16.6255 32.3432 16.638C32.3123 16.6507 32.2843 16.6693 32.2607 16.6928C32.2372 16.7165 32.2185 16.7445 32.2059 16.7753C32.1934 16.8062 32.1871 16.8393 32.1875 16.8726C32.1902 16.9374 32.2184 16.9983 32.2657 17.0426C32.3129 17.0867 32.3757 17.1107 32.4405 17.109C32.5045 17.1081 32.5659 17.0834 32.6126 17.0397C32.6594 16.9959 32.6882 16.9364 32.6934 16.8726C32.6915 16.8061 32.6642 16.7428 32.6172 16.6958C32.5703 16.6489 32.507 16.6216 32.4405 16.6197Z" fill="white"/>
<path d="M30.4043 13.0371C30.3086 13.0383 30.2172 13.077 30.1496 13.1448C30.082 13.2126 30.0437 13.3042 30.043 13.4C30.0488 13.49 30.0887 13.5745 30.1545 13.6362C30.2205 13.6979 30.3074 13.7322 30.3976 13.7322C30.4877 13.7322 30.5746 13.6979 30.6406 13.6362C30.7064 13.5745 30.7463 13.49 30.7521 13.4C30.7515 13.3065 30.7151 13.2168 30.6504 13.1494C30.5858 13.0819 30.4977 13.0417 30.4043 13.0371Z" fill="white"/>
<path d="M30.769 9.81746C30.7675 9.72144 30.7285 9.62982 30.6605 9.56207C30.5924 9.49431 30.5007 9.45575 30.4047 9.45459C30.3104 9.45459 30.2201 9.49202 30.1534 9.55866C30.0868 9.6253 30.0493 9.71569 30.0493 9.80993C30.0493 9.90417 30.0868 9.99456 30.1534 10.0612C30.2201 10.1278 30.3104 10.1653 30.4047 10.1653C30.4985 10.165 30.5885 10.1288 30.6563 10.0641C30.724 9.99933 30.7644 9.91107 30.769 9.81746Z" fill="white"/>
<path d="M30.6569 16.6002C30.6112 16.5991 30.5657 16.6074 30.5232 16.6244C30.4808 16.6414 30.4421 16.667 30.4097 16.6992C30.3775 16.7316 30.3519 16.7703 30.3349 16.8128C30.3179 16.8552 30.3096 16.9007 30.3106 16.9465C30.3111 17.0382 30.3477 17.1261 30.4126 17.1909C30.4773 17.2557 30.5652 17.2923 30.6569 17.2928C30.7035 17.294 30.7498 17.286 30.7934 17.2691C30.8369 17.2524 30.8766 17.2273 30.9103 17.1951C30.9441 17.1628 30.971 17.1243 30.9898 17.0817C31.0087 17.0391 31.0189 16.9932 31.0198 16.9465C31.0203 16.8995 31.0111 16.8528 30.9929 16.8095C30.9745 16.7661 30.9475 16.7271 30.9135 16.6946C30.8795 16.6621 30.8391 16.6369 30.795 16.6207C30.7509 16.6045 30.7039 16.5975 30.6569 16.6002Z" fill="white"/>
<path d="M32.4394 9.64333C32.4046 9.64065 32.3697 9.64517 32.3367 9.65662C32.3039 9.66808 32.2736 9.68621 32.248 9.70989C32.2224 9.73358 32.2021 9.76229 32.1881 9.79424C32.1741 9.82618 32.167 9.86067 32.167 9.89553C32.167 9.93039 32.1741 9.96488 32.1881 9.99682C32.2021 10.0288 32.2224 10.0575 32.248 10.0812C32.2736 10.1048 32.3039 10.123 32.3367 10.1344C32.3697 10.1459 32.4046 10.1504 32.4394 10.1477C32.4741 10.1504 32.5091 10.1459 32.5421 10.1344C32.5749 10.123 32.6051 10.1048 32.6307 10.0812C32.6563 10.0575 32.6767 10.0288 32.6907 9.99682C32.7047 9.96488 32.7119 9.93039 32.7119 9.89553C32.7119 9.86067 32.7047 9.82618 32.6907 9.79424C32.6767 9.76229 32.6563 9.73358 32.6307 9.70989C32.6051 9.68621 32.5749 9.66808 32.5421 9.65662C32.5091 9.64517 32.4741 9.64065 32.4394 9.64333Z" fill="white"/>
<path d="M23.7179 15.545C23.806 15.5391 23.8886 15.5001 23.9488 15.4357C24.0092 15.3712 24.0428 15.2861 24.0428 15.1979C24.0428 15.1097 24.0092 15.0246 23.9488 14.9602C23.8886 14.8958 23.806 14.8567 23.7179 14.8509C23.6704 14.8477 23.6227 14.8544 23.5778 14.8704C23.5331 14.8864 23.492 14.9115 23.4572 14.944C23.4226 14.9765 23.3949 15.0159 23.3759 15.0595C23.357 15.1032 23.3472 15.1503 23.3472 15.1979C23.3472 15.2455 23.357 15.2926 23.3759 15.3363C23.3949 15.3799 23.4226 15.4192 23.4572 15.4518C23.492 15.4843 23.5331 15.5094 23.5778 15.5254C23.6227 15.5415 23.6704 15.5481 23.7179 15.545Z" fill="white"/>
<path d="M23.4644 11.9473C23.5554 11.9439 23.6417 11.9064 23.7061 11.8422C23.7707 11.778 23.8085 11.6919 23.8122 11.6009C23.8122 11.5067 23.7748 11.4163 23.7082 11.3497C23.6415 11.2831 23.5512 11.2456 23.4569 11.2456C23.3626 11.2456 23.2723 11.2831 23.2056 11.3497C23.1391 11.4163 23.1016 11.5067 23.1016 11.6009C23.1062 11.6942 23.1464 11.782 23.2139 11.8465C23.2815 11.9109 23.3711 11.947 23.4644 11.9473Z" fill="white"/>
<path d="M28.8282 14.8509C28.7806 14.8477 28.7331 14.8544 28.6882 14.8704C28.6435 14.8864 28.6024 14.9115 28.5676 14.944C28.5328 14.9765 28.5051 15.0159 28.4863 15.0595C28.4673 15.1032 28.4575 15.1503 28.4575 15.1979C28.4575 15.2455 28.4673 15.2926 28.4863 15.3363C28.5051 15.3799 28.5328 15.4192 28.5676 15.4518C28.6024 15.4843 28.6435 15.5094 28.6882 15.5254C28.7331 15.5415 28.7806 15.5481 28.8282 15.545C28.9163 15.5391 28.999 15.5001 29.0592 15.4357C29.1196 15.3712 29.1531 15.2861 29.1531 15.1979C29.1531 15.1097 29.1196 15.0246 29.0592 14.9602C28.999 14.8958 28.9163 14.8567 28.8282 14.8509Z" fill="white"/>
<path d="M22.1332 13.7478C22.1793 13.7482 22.2249 13.7395 22.2677 13.7222C22.3104 13.705 22.3493 13.6795 22.3821 13.6472C22.4151 13.6149 22.4411 13.5764 22.4592 13.534C22.4773 13.4916 22.4866 13.4461 22.487 13.4C22.4863 13.3055 22.4491 13.215 22.3832 13.1474C22.3172 13.0797 22.2276 13.0402 22.1332 13.0371C22.0394 13.0426 21.9509 13.0828 21.8849 13.1498C21.819 13.2169 21.7803 13.306 21.7764 13.4C21.7809 13.4923 21.8202 13.5795 21.8864 13.644C21.9527 13.7086 22.0408 13.7456 22.1332 13.7478Z" fill="white"/>
<path d="M22.1243 10.1652C22.1952 10.1667 22.2649 10.1469 22.3245 10.1085C22.384 10.07 22.4307 10.0146 22.4585 9.94935C22.4864 9.88412 22.4941 9.81206 22.4807 9.74244C22.4671 9.67281 22.4331 9.60881 22.3829 9.55867C22.3328 9.50851 22.2688 9.47453 22.1992 9.46105C22.1295 9.44759 22.0576 9.45526 21.9924 9.48308C21.927 9.51091 21.8716 9.5576 21.8332 9.61718C21.7947 9.67676 21.7749 9.74649 21.7764 9.81737C21.778 9.90915 21.8151 9.99672 21.88 10.0616C21.9449 10.1265 22.0326 10.1636 22.1243 10.1652Z" fill="white"/>
<path d="M30.988 13.5708C30.9563 13.7012 30.8811 13.8169 30.775 13.8989C30.6688 13.981 30.538 14.0246 30.4038 14.0225C30.2365 14.0225 30.076 13.956 29.9577 13.8377C29.8393 13.7194 29.7729 13.5589 29.7729 13.3916C29.7729 13.2243 29.8393 13.0638 29.9577 12.9455C30.076 12.8272 30.2365 12.7607 30.4038 12.7607C30.538 12.7589 30.6687 12.8026 30.7748 12.8846C30.8808 12.9666 30.9561 13.0822 30.988 13.2124H34.5219C34.5369 13.1808 34.5219 13.1658 34.5219 13.1341C34.5198 12.9545 34.5088 12.7751 34.4887 12.5966H32.2302L31.4081 11.7926H29.6615C29.6188 11.9128 29.5397 12.0168 29.4354 12.0901C29.331 12.1635 29.2064 12.2026 29.0788 12.2021C28.9612 12.2013 28.8463 12.1672 28.7474 12.1038C28.6483 12.0405 28.5693 11.9504 28.5193 11.844C28.4693 11.7377 28.4503 11.6193 28.4647 11.5026C28.4791 11.386 28.5261 11.2758 28.6005 11.1847C28.6747 11.0936 28.7733 11.0254 28.8847 10.988C28.9962 10.9505 29.1159 10.9453 29.2301 10.9729C29.3443 11.0006 29.4485 11.06 29.5304 11.1443C29.6123 11.2286 29.6687 11.3343 29.6931 11.4493H31.5707L32.3717 12.2759H34.439C34.4418 12.2281 34.4362 12.1802 34.4225 12.1344C34.3909 11.9446 34.3592 11.7549 34.3276 11.5983C34.3085 11.5017 34.2825 11.4066 34.2493 11.3138H31.6189L30.6703 10.3682C30.5883 10.413 30.4957 10.4349 30.4023 10.4314C30.2376 10.4319 30.0793 10.3675 29.9616 10.2523C29.8439 10.1371 29.7761 9.9803 29.7729 9.81561C29.7749 9.64847 29.8417 9.48865 29.9596 9.37003C30.0774 9.25142 30.2367 9.18333 30.4038 9.18021C30.5711 9.1806 30.7316 9.24716 30.85 9.36534C30.9685 9.48352 31.0355 9.64375 31.0362 9.81109C31.0311 9.92763 30.998 10.0412 30.9398 10.1423L31.7695 10.987H34.1786C34.0846 10.6712 33.9741 10.3606 33.8473 10.0565V10.0415H32.8536C32.8144 10.1352 32.7447 10.2129 32.656 10.2622C32.5672 10.3115 32.4643 10.3294 32.3641 10.313C32.2638 10.2967 32.1719 10.247 32.1034 10.1721C32.0349 10.0971 31.9937 10.0012 31.9863 9.89993C31.9887 9.7817 32.0373 9.66912 32.1218 9.58636C32.2063 9.50359 32.3198 9.45723 32.438 9.45726C32.5297 9.45605 32.6193 9.48481 32.6932 9.53915C32.7671 9.59351 32.8213 9.67048 32.8475 9.75839H33.6998C33.6531 9.6801 33.62 9.58524 33.5733 9.50695C33.2967 8.96752 32.9582 8.4622 32.5645 8.00126C32.4229 7.84317 32.2799 7.67001 32.1384 7.52848C31.205 6.59488 30.0622 5.89768 28.8049 5.49489C27.5477 5.09211 26.2125 4.9954 24.9103 5.21279C23.6082 5.43018 22.3769 5.95539 21.3187 6.74473C20.2605 7.53407 19.4062 8.56469 18.8266 9.75087H19.6939C19.72 9.66281 19.774 9.58571 19.8479 9.53132C19.9219 9.47694 20.0116 9.44829 20.1035 9.44973C20.2206 9.45014 20.3328 9.49695 20.4154 9.57991C20.4982 9.66289 20.5446 9.77526 20.5446 9.8924C20.5458 9.95067 20.5353 10.0086 20.5136 10.0627C20.4918 10.1168 20.4594 10.1659 20.4181 10.2071C20.3769 10.2483 20.3278 10.2808 20.2737 10.3025C20.2197 10.3242 20.1617 10.3348 20.1035 10.3336C20.0127 10.3317 19.9247 10.3017 19.8517 10.2478C19.7785 10.1938 19.724 10.1186 19.6954 10.0324H18.6821C18.5409 10.3404 18.426 10.6597 18.3388 10.987H20.7675L21.6031 10.1514C21.5388 10.053 21.5057 9.93759 21.5083 9.82013C21.5057 9.73741 21.5195 9.655 21.5494 9.57777C21.579 9.50053 21.6239 9.43002 21.6813 9.37038C21.7386 9.31076 21.8074 9.26321 21.8835 9.23055C21.9595 9.19789 22.0413 9.18077 22.1241 9.18021C22.2912 9.18101 22.4511 9.24773 22.5693 9.36586C22.6875 9.48401 22.7542 9.64402 22.755 9.81109C22.7544 9.89308 22.7375 9.97411 22.7054 10.0495C22.6733 10.125 22.6267 10.1933 22.5679 10.2506C22.5092 10.3078 22.4398 10.3529 22.3636 10.3832C22.2874 10.4134 22.206 10.4283 22.1241 10.4269C22.0307 10.4302 21.9381 10.4084 21.8561 10.3637L20.909 11.3092H18.259C18.1521 11.6205 18.0833 11.9436 18.0542 12.2714H20.1622L20.9662 11.4508H22.8423C22.8695 11.3092 22.9466 11.1821 23.0597 11.0926C23.1726 11.0031 23.314 10.9571 23.4581 10.9629C23.6179 10.9708 23.7686 11.0398 23.8789 11.1557C23.9893 11.2716 24.0509 11.4255 24.0509 11.5855C24.0509 11.7456 23.9893 11.8995 23.8789 12.0154C23.7686 12.1312 23.6179 12.2003 23.4581 12.2081C23.3279 12.2096 23.2003 12.1712 23.0927 12.098C22.985 12.0247 22.9024 11.9202 22.8558 11.7986H21.1153L20.3097 12.6026H18.0226C17.9889 12.8061 17.9782 13.0126 17.991 13.2185H21.5399C21.5754 13.0868 21.6542 12.9707 21.7632 12.8889C21.8723 12.807 22.0057 12.764 22.1421 12.7667C22.3094 12.7667 22.4699 12.8332 22.5883 12.9515C22.7066 13.0698 22.773 13.2303 22.773 13.3976C22.773 13.565 22.7066 13.7254 22.5883 13.8437C22.4699 13.962 22.3094 14.0285 22.1421 14.0285C22.0057 14.0312 21.8723 13.9882 21.7632 13.9064C21.6542 13.8245 21.5754 13.7085 21.5399 13.5768H17.991C17.9776 13.7781 17.9881 13.9803 18.0226 14.1791H20.5461L21.3517 14.9982H23.1329C23.174 14.8766 23.2527 14.7712 23.3578 14.6976C23.4629 14.6239 23.5888 14.5857 23.7171 14.5886C23.799 14.5872 23.8803 14.602 23.9563 14.6322C24.0324 14.6624 24.1018 14.7073 24.1604 14.7644C24.2191 14.8215 24.2659 14.8897 24.298 14.9649C24.3302 15.0402 24.3472 15.121 24.348 15.2029C24.3475 15.3701 24.281 15.5304 24.1628 15.6486C24.0446 15.7668 23.8842 15.8334 23.7171 15.8338C23.5725 15.8317 23.433 15.7807 23.3212 15.689C23.2094 15.5974 23.1318 15.4707 23.1013 15.3294H21.2086L20.388 14.5254H18.0678C18.0977 14.8462 18.1608 15.163 18.256 15.471H20.6575L21.5881 16.403C21.674 16.3528 21.7716 16.3259 21.8711 16.3247C21.9959 16.3247 22.1181 16.3617 22.2218 16.4311C22.3255 16.5005 22.4064 16.5992 22.4541 16.7145C22.5019 16.8298 22.5142 16.9568 22.4898 17.0792C22.4653 17.2016 22.405 17.3141 22.3167 17.4021C22.2283 17.4904 22.1158 17.5503 21.9932 17.5745C21.8708 17.5986 21.7439 17.586 21.6287 17.538C21.5134 17.4901 21.4149 17.4089 21.3458 17.305C21.2767 17.201 21.2399 17.0789 21.2402 16.954C21.2481 16.8429 21.2804 16.735 21.3351 16.6379L20.5145 15.8052H18.3388C18.4329 16.114 18.5487 16.4159 18.6851 16.7086H19.6939C19.7222 16.6229 19.7778 16.549 19.8518 16.4977C19.9259 16.4463 20.0148 16.4204 20.105 16.424C20.1634 16.4228 20.2213 16.4334 20.2755 16.4552C20.3298 16.477 20.379 16.5097 20.4202 16.551C20.4615 16.5924 20.4939 16.6418 20.5156 16.696C20.5371 16.7502 20.5476 16.8083 20.5461 16.8667C20.5461 16.9837 20.4996 17.0959 20.4169 17.1787C20.3341 17.2614 20.2219 17.3079 20.105 17.3079C20.0131 17.3086 19.9235 17.2797 19.8494 17.2255C19.7754 17.1713 19.7209 17.0945 19.6939 17.0067H18.8206C19.3968 18.1946 20.2494 19.2269 21.3066 20.0172C22.3641 20.8075 23.5956 21.333 24.8978 21.5492C26.2001 21.7656 27.5352 21.6667 28.7914 21.2606C30.0476 20.8545 31.188 20.1533 32.1173 19.2156C32.2588 19.074 32.4019 18.8994 32.56 18.7428C32.9406 18.2977 33.2685 17.8102 33.5371 17.2898C33.5917 17.199 33.6395 17.1045 33.6802 17.0067H32.8385C32.8131 17.0923 32.7611 17.1674 32.6902 17.2215C32.6194 17.2757 32.5332 17.3059 32.444 17.3079C32.326 17.3079 32.2127 17.2618 32.1283 17.1793C32.0438 17.0969 31.995 16.9846 31.9923 16.8667C31.9947 16.7485 32.0434 16.6359 32.1278 16.5531C32.2123 16.4704 32.3258 16.424 32.444 16.424C32.5315 16.4231 32.617 16.4502 32.6881 16.5014C32.759 16.5526 32.8119 16.6252 32.8385 16.7086H33.8277C33.9566 16.4146 34.0673 16.1128 34.159 15.8052H32.03L31.1928 16.6243C31.2553 16.718 31.2887 16.8279 31.2892 16.9405C31.288 17.1078 31.221 17.2677 31.1026 17.3859C30.9841 17.5039 30.8241 17.5706 30.6568 17.5714C30.4949 17.5634 30.3424 17.4937 30.2307 17.3764C30.1189 17.2589 30.0568 17.1033 30.0568 16.9413C30.0568 16.7792 30.1189 16.6236 30.2307 16.5061C30.3424 16.3888 30.4949 16.3191 30.6568 16.3111C30.762 16.3125 30.8653 16.3393 30.9579 16.3894L31.8704 15.4574H34.2538C34.2891 15.371 34.3153 15.2812 34.3321 15.1894C34.3472 15.0388 34.3954 14.8581 34.4104 14.6534C34.4241 14.6075 34.4297 14.5596 34.427 14.5118H32.1399L31.3343 15.3159H29.4417C29.4096 15.4678 29.3226 15.6025 29.1972 15.6942C29.0716 15.7858 28.9168 15.8278 28.7623 15.8121C28.6077 15.7965 28.4645 15.7242 28.36 15.6092C28.2555 15.4943 28.1974 15.3448 28.1965 15.1894C28.1972 15.1075 28.2143 15.0267 28.2465 14.9514C28.2786 14.8761 28.3254 14.808 28.3841 14.7509C28.4427 14.6938 28.5121 14.6488 28.5881 14.6187C28.6642 14.5885 28.7455 14.5737 28.8274 14.5751C28.9543 14.5693 29.0794 14.6066 29.1826 14.6809C29.2856 14.7553 29.3605 14.8623 29.395 14.9846H31.1928L31.9968 14.1655H34.4887C34.5092 14.0032 34.5204 13.8398 34.5219 13.6762C34.5219 13.6446 34.5369 13.5964 34.5219 13.5663L30.988 13.5708ZM27.6183 14.8476H27.0371L25.5962 13.0604V14.8476H24.875V11.7218H25.4456L26.9016 13.5572V11.7218H27.6243L27.6183 14.8476Z" fill="white"/>
</g>
<path d="M12.5986 31.0342V36.9102H11.91L8.70801 32.2966H8.65063V36.9102H7.93908V31.0342H8.62768L11.8411 35.6592H11.8985V31.0342H12.5986ZM14.7339 31.0342V36.9102H14.0224V31.0342H14.7339ZM20.1774 32.8704C20.1143 32.6772 20.0311 32.5041 19.9278 32.3511C19.8264 32.1962 19.7049 32.0642 19.5634 31.9552C19.4238 31.8461 19.265 31.7629 19.0871 31.7055C18.9092 31.6482 18.7141 31.6195 18.5018 31.6195C18.1537 31.6195 17.8371 31.7094 17.5521 31.8892C17.2671 32.069 17.0405 32.3339 16.8721 32.6839C16.7038 33.034 16.6197 33.4634 16.6197 33.9722C16.6197 34.481 16.7048 34.9104 16.875 35.2604C17.0452 35.6104 17.2757 35.8754 17.5665 36.0552C17.8572 36.235 18.1843 36.3249 18.5477 36.3249C18.8844 36.3249 19.1808 36.2531 19.4371 36.1097C19.6954 35.9643 19.8962 35.7596 20.0397 35.4957C20.185 35.2298 20.2577 34.9171 20.2577 34.5575L20.4758 34.6034H18.7084V33.9722H20.9463V34.6034C20.9463 35.0873 20.843 35.5081 20.6364 35.8658C20.4318 36.2235 20.1487 36.5008 19.7872 36.6978C19.4276 36.8929 19.0144 36.9905 18.5477 36.9905C18.0274 36.9905 17.5703 36.8681 17.1763 36.6232C16.7842 36.3784 16.4781 36.0303 16.2581 35.5789C16.0401 35.1275 15.9311 34.5919 15.9311 33.9722C15.9311 33.5074 15.9932 33.0894 16.1176 32.7183C16.2438 32.3454 16.4217 32.0278 16.6512 31.7658C16.8807 31.5037 17.1524 31.3029 17.4661 31.1633C17.7797 31.0236 18.125 30.9538 18.5018 30.9538C18.8117 30.9538 19.1005 31.0007 19.3683 31.0944C19.638 31.1862 19.878 31.3173 20.0884 31.4875C20.3008 31.6558 20.4777 31.8576 20.6192 32.0929C20.7608 32.3262 20.8583 32.5854 20.9119 32.8704H20.1774ZM22.165 36.9102V31.0342H25.7112V31.6654H22.8765V33.6508H25.5276V34.282H22.8765V36.2789H25.7571V36.9102H22.165ZM31.6532 31.0342V36.9102H30.9646L27.7627 32.2966H27.7053V36.9102H26.9937V31.0342H27.6823L30.8958 35.6592H30.9531V31.0342H31.6532ZM33.7886 31.0342V36.9102H33.077V31.0342H33.7886ZM39.0714 31.0342H39.7829V34.9247C39.7829 35.3264 39.6882 35.685 39.4989 36.0006C39.3114 36.3143 39.0465 36.562 38.7041 36.7437C38.3617 36.9235 37.9601 37.0134 37.4991 37.0134C37.0381 37.0134 36.6364 36.9235 36.294 36.7437C35.9517 36.562 35.6858 36.3143 35.4964 36.0006C35.309 35.685 35.2152 35.3264 35.2152 34.9247V31.0342H35.9268V34.8673C35.9268 35.1542 35.9899 35.4096 36.1162 35.6334C36.2424 35.8553 36.4222 36.0303 36.6556 36.1584C36.8908 36.2847 37.172 36.3478 37.4991 36.3478C37.8262 36.3478 38.1073 36.2847 38.3426 36.1584C38.5779 36.0303 38.7577 35.8553 38.882 35.6334C39.0082 35.4096 39.0714 35.1542 39.0714 34.8673V31.0342ZM44.4173 32.5032C44.3829 32.2124 44.2432 31.9867 43.9984 31.826C43.7536 31.6654 43.4533 31.585 43.0975 31.585C42.8373 31.585 42.6097 31.6271 42.4146 31.7113C42.2214 31.7954 42.0703 31.9112 41.9613 32.0584C41.8542 32.2057 41.8006 32.3731 41.8006 32.5605C41.8006 32.7174 41.8379 32.8522 41.9125 32.9651C41.989 33.076 42.0866 33.1688 42.2052 33.2434C42.3238 33.3161 42.4481 33.3763 42.5782 33.4242C42.7082 33.4701 42.8278 33.5074 42.9368 33.5361L43.5336 33.6967C43.6866 33.7369 43.8568 33.7924 44.0443 33.8631C44.2337 33.9339 44.4144 34.0305 44.5866 34.1529C44.7606 34.2734 44.9041 34.4284 45.0169 34.6177C45.1298 34.8071 45.1862 35.0395 45.1862 35.3149C45.1862 35.6324 45.103 35.9193 44.9366 36.1757C44.7721 36.432 44.5311 36.6357 44.2136 36.7868C43.898 36.9379 43.5145 37.0134 43.0631 37.0134C42.6422 37.0134 42.2779 36.9455 41.9699 36.8097C41.6639 36.6739 41.4229 36.4846 41.2469 36.2416C41.0728 35.9987 40.9743 35.7166 40.9514 35.3953H41.6859C41.705 35.6171 41.7796 35.8008 41.9097 35.9461C42.0416 36.0896 42.208 36.1967 42.4089 36.2675C42.6116 36.3363 42.8297 36.3708 43.0631 36.3708C43.3347 36.3708 43.5785 36.3268 43.7947 36.2388C44.0108 36.1489 44.182 36.0245 44.3083 35.8658C44.4345 35.7051 44.4976 35.5177 44.4976 35.3034C44.4976 35.1083 44.4431 34.9496 44.3341 34.8272C44.2251 34.7047 44.0816 34.6053 43.9037 34.5288C43.7258 34.4523 43.5336 34.3853 43.327 34.3279L42.604 34.1214C42.1449 33.9894 41.7815 33.801 41.5137 33.5561C41.2459 33.3113 41.112 32.9909 41.112 32.595C41.112 32.266 41.201 31.9791 41.3789 31.7342C41.5587 31.4875 41.7997 31.2962 42.1019 31.1604C42.406 31.0227 42.7455 30.9538 43.1204 30.9538C43.4992 30.9538 43.8358 31.0217 44.1304 31.1575C44.4249 31.2914 44.6583 31.4751 44.8304 31.7084C45.0045 31.9418 45.0963 32.2067 45.1059 32.5032H44.4173Z" fill="white"/>
<path d="M17.3868 39.6212V40.6899H17.2636V39.6212H17.3868ZM18.0862 40.6899H17.9505L18.3429 39.6212H18.4765L18.869 40.6899H18.7333L18.4139 39.7903H18.4056L18.0862 40.6899ZM18.1363 40.2725H18.6832V40.3873H18.1363V40.2725ZM19.5865 40.0679L19.4759 40.0992C19.4689 40.0808 19.4587 40.0628 19.4451 40.0454C19.4319 40.0277 19.4138 40.0131 19.3908 40.0016C19.3679 39.9901 19.3385 39.9844 19.3026 39.9844C19.2536 39.9844 19.2127 39.9957 19.18 40.0183C19.1476 40.0406 19.1315 40.0689 19.1315 40.1034C19.1315 40.134 19.1426 40.1582 19.1649 40.1759C19.1871 40.1937 19.2219 40.2084 19.2692 40.2203L19.3882 40.2495C19.4599 40.2669 19.5133 40.2935 19.5484 40.3293C19.5836 40.3648 19.6011 40.4106 19.6011 40.4666C19.6011 40.5125 19.5879 40.5536 19.5615 40.5897C19.5354 40.6259 19.4988 40.6545 19.4519 40.6753C19.4049 40.6962 19.3503 40.7066 19.288 40.7066C19.2063 40.7066 19.1386 40.6889 19.085 40.6534C19.0314 40.6179 18.9975 40.5661 18.9832 40.4979L19.1001 40.4687C19.1113 40.5118 19.1323 40.5442 19.1633 40.5657C19.1946 40.5873 19.2355 40.5981 19.2859 40.5981C19.3433 40.5981 19.3889 40.5859 19.4226 40.5616C19.4567 40.5369 19.4738 40.5073 19.4738 40.4728C19.4738 40.445 19.464 40.4217 19.4446 40.4029C19.4251 40.3838 19.3952 40.3695 19.3548 40.3601L19.2212 40.3288C19.1478 40.3114 19.0939 40.2845 19.0594 40.2479C19.0253 40.2111 19.0083 40.165 19.0083 40.1096C19.0083 40.0644 19.021 40.0244 19.0464 39.9896C19.0721 39.9548 19.1071 39.9275 19.1513 39.9077C19.1958 39.8878 19.2463 39.8779 19.3026 39.8779C19.3819 39.8779 19.4442 39.8953 19.4894 39.9301C19.535 39.9649 19.5674 40.0108 19.5865 40.0679ZM20.3543 40.0679L20.2437 40.0992C20.2367 40.0808 20.2264 40.0628 20.2129 40.0454C20.1996 40.0277 20.1816 40.0131 20.1586 40.0016C20.1356 39.9901 20.1062 39.9844 20.0704 39.9844C20.0213 39.9844 19.9805 39.9957 19.9478 40.0183C19.9154 40.0406 19.8992 40.0689 19.8992 40.1034C19.8992 40.134 19.9104 40.1582 19.9326 40.1759C19.9549 40.1937 19.9897 40.2084 20.037 40.2203L20.156 40.2495C20.2277 40.2669 20.2811 40.2935 20.3162 40.3293C20.3513 40.3648 20.3689 40.4106 20.3689 40.4666C20.3689 40.5125 20.3557 40.5536 20.3292 40.5897C20.3031 40.6259 20.2666 40.6545 20.2197 40.6753C20.1727 40.6962 20.1181 40.7066 20.0558 40.7066C19.974 40.7066 19.9064 40.6889 19.8528 40.6534C19.7992 40.6179 19.7653 40.5661 19.751 40.4979L19.8679 40.4687C19.8791 40.5118 19.9001 40.5442 19.9311 40.5657C19.9624 40.5873 20.0033 40.5981 20.0537 40.5981C20.1111 40.5981 20.1567 40.5859 20.1904 40.5616C20.2245 40.5369 20.2416 40.5073 20.2416 40.4728C20.2416 40.445 20.2318 40.4217 20.2123 40.4029C20.1929 40.3838 20.1629 40.3695 20.1226 40.3601L19.989 40.3288C19.9156 40.3114 19.8617 40.2845 19.8272 40.2479C19.7931 40.2111 19.7761 40.165 19.7761 40.1096C19.7761 40.0644 19.7888 40.0244 19.8142 39.9896C19.8399 39.9548 19.8749 39.9275 19.9191 39.9077C19.9636 39.8878 20.014 39.8779 20.0704 39.8779C20.1497 39.8779 20.212 39.8953 20.2572 39.9301C20.3028 39.9649 20.3352 40.0108 20.3543 40.0679ZM20.5543 40.6899V39.8884H20.6774V40.6899H20.5543ZM20.6169 39.7548C20.5929 39.7548 20.5722 39.7466 20.5548 39.7302C20.5378 39.7139 20.5292 39.6942 20.5292 39.6713C20.5292 39.6483 20.5378 39.6287 20.5548 39.6123C20.5722 39.596 20.5929 39.5878 20.6169 39.5878C20.6409 39.5878 20.6614 39.596 20.6785 39.6123C20.6959 39.6287 20.7046 39.6483 20.7046 39.6713C20.7046 39.6942 20.6959 39.7139 20.6785 39.7302C20.6614 39.7466 20.6409 39.7548 20.6169 39.7548ZM21.4708 40.0679L21.3602 40.0992C21.3532 40.0808 21.3429 40.0628 21.3294 40.0454C21.3162 40.0277 21.2981 40.0131 21.2751 40.0016C21.2521 39.9901 21.2227 39.9844 21.1869 39.9844C21.1379 39.9844 21.097 39.9957 21.0643 40.0183C21.0319 40.0406 21.0157 40.0689 21.0157 40.1034C21.0157 40.134 21.0269 40.1582 21.0491 40.1759C21.0714 40.1937 21.1062 40.2084 21.1535 40.2203L21.2725 40.2495C21.3442 40.2669 21.3976 40.2935 21.4327 40.3293C21.4678 40.3648 21.4854 40.4106 21.4854 40.4666C21.4854 40.5125 21.4722 40.5536 21.4458 40.5897C21.4197 40.6259 21.3831 40.6545 21.3362 40.6753C21.2892 40.6962 21.2346 40.7066 21.1723 40.7066C21.0905 40.7066 21.0229 40.6889 20.9693 40.6534C20.9157 40.6179 20.8818 40.5661 20.8675 40.4979L20.9844 40.4687C20.9956 40.5118 21.0166 40.5442 21.0476 40.5657C21.0789 40.5873 21.1198 40.5981 21.1702 40.5981C21.2276 40.5981 21.2732 40.5859 21.3069 40.5616C21.341 40.5369 21.3581 40.5073 21.3581 40.4728C21.3581 40.445 21.3483 40.4217 21.3289 40.4029C21.3094 40.3838 21.2795 40.3695 21.2391 40.3601L21.1055 40.3288C21.0321 40.3114 20.9782 40.2845 20.9437 40.2479C20.9096 40.2111 20.8926 40.165 20.8926 40.1096C20.8926 40.0644 20.9053 40.0244 20.9307 39.9896C20.9564 39.9548 20.9914 39.9275 21.0356 39.9077C21.0801 39.8878 21.1306 39.8779 21.1869 39.8779C21.2662 39.8779 21.3285 39.8953 21.3737 39.9301C21.4193 39.9649 21.4517 40.0108 21.4708 40.0679ZM22.0194 39.8884V39.9927H21.604V39.8884H22.0194ZM21.7251 39.6963H21.8482V40.4603C21.8482 40.4951 21.8533 40.5212 21.8634 40.5386C21.8738 40.5557 21.887 40.5671 21.903 40.573C21.9194 40.5786 21.9366 40.5814 21.9547 40.5814C21.9683 40.5814 21.9794 40.5807 21.9881 40.5793C21.9968 40.5776 22.0037 40.5762 22.009 40.5751L22.034 40.6858C22.0257 40.6889 22.014 40.692 21.999 40.6952C21.9841 40.6986 21.9651 40.7004 21.9422 40.7004C21.9074 40.7004 21.8733 40.6929 21.8399 40.6779C21.8068 40.663 21.7793 40.6402 21.7574 40.6096C21.7359 40.579 21.7251 40.5403 21.7251 40.4937V39.6963ZM22.4405 40.7087C22.3897 40.7087 22.3436 40.6992 22.3022 40.68C22.2608 40.6605 22.228 40.6325 22.2036 40.596C22.1793 40.5591 22.1671 40.5146 22.1671 40.4624C22.1671 40.4165 22.1761 40.3793 22.1942 40.3507C22.2123 40.3219 22.2365 40.2992 22.2668 40.2829C22.297 40.2665 22.3304 40.2544 22.367 40.2464C22.4038 40.238 22.4409 40.2314 22.4781 40.2265C22.5268 40.2203 22.5663 40.2156 22.5966 40.2124C22.6272 40.209 22.6495 40.2032 22.6634 40.1952C22.6776 40.1872 22.6848 40.1733 22.6848 40.1535V40.1493C22.6848 40.0978 22.6707 40.0578 22.6425 40.0293C22.6147 40.0007 22.5724 39.9865 22.5157 39.9865C22.4569 39.9865 22.4108 39.9994 22.3774 40.0251C22.344 40.0508 22.3205 40.0783 22.3069 40.1076L22.19 40.0658C22.2109 40.0171 22.2388 39.9792 22.2735 39.952C22.3087 39.9246 22.347 39.9054 22.3884 39.8946C22.4301 39.8835 22.4712 39.8779 22.5115 39.8779C22.5373 39.8779 22.5668 39.8811 22.6002 39.8873C22.634 39.8932 22.6665 39.9056 22.6978 39.9244C22.7295 39.9432 22.7557 39.9715 22.7766 40.0094C22.7975 40.0474 22.8079 40.0982 22.8079 40.1618V40.6899H22.6848V40.5814H22.6785C22.6702 40.5988 22.6562 40.6174 22.6368 40.6372C22.6173 40.6571 22.5914 40.6739 22.559 40.6879C22.5266 40.7018 22.4872 40.7087 22.4405 40.7087ZM22.4593 40.5981C22.508 40.5981 22.5491 40.5885 22.5825 40.5694C22.6162 40.5503 22.6416 40.5256 22.6587 40.4953C22.6761 40.465 22.6848 40.4332 22.6848 40.3998V40.2871C22.6795 40.2933 22.6681 40.2991 22.6503 40.3043C22.6329 40.3092 22.6128 40.3135 22.5898 40.3173C22.5672 40.3208 22.5451 40.3239 22.5235 40.3267C22.5023 40.3292 22.4851 40.3313 22.4718 40.333C22.4398 40.3372 22.4099 40.344 22.3821 40.3533C22.3546 40.3624 22.3323 40.3761 22.3153 40.3946C22.2986 40.4127 22.2902 40.4374 22.2902 40.4687C22.2902 40.5115 22.3061 40.5438 22.3377 40.5657C22.3697 40.5873 22.4103 40.5981 22.4593 40.5981ZM23.1559 40.2077V40.6899H23.0327V39.8884H23.1517V40.0136H23.1621C23.1809 39.9729 23.2094 39.9402 23.2477 39.9155C23.286 39.8905 23.3354 39.8779 23.3959 39.8779C23.4502 39.8779 23.4977 39.8891 23.5384 39.9113C23.5791 39.9333 23.6108 39.9666 23.6334 40.0115C23.656 40.0561 23.6673 40.1124 23.6673 40.1806V40.6899H23.5441V40.189C23.5441 40.126 23.5278 40.0769 23.4951 40.0418C23.4624 40.0063 23.4175 39.9886 23.3604 39.9886C23.3211 39.9886 23.286 39.9971 23.255 40.0141C23.2244 40.0312 23.2002 40.0561 23.1825 40.0888C23.1647 40.1215 23.1559 40.1611 23.1559 40.2077ZM24.2409 39.8884V39.9927H23.8255V39.8884H24.2409ZM23.9466 39.6963H24.0698V40.4603C24.0698 40.4951 24.0748 40.5212 24.0849 40.5386C24.0953 40.5557 24.1086 40.5671 24.1246 40.573C24.1409 40.5786 24.1581 40.5814 24.1762 40.5814C24.1898 40.5814 24.2009 40.5807 24.2096 40.5793C24.2183 40.5776 24.2253 40.5762 24.2305 40.5751L24.2556 40.6858C24.2472 40.6889 24.2355 40.692 24.2206 40.6952C24.2056 40.6986 24.1867 40.7004 24.1637 40.7004C24.1289 40.7004 24.0948 40.6929 24.0614 40.6779C24.0284 40.663 24.0009 40.6402 23.979 40.6096C23.9574 40.579 23.9466 40.5403 23.9466 40.4937V39.6963ZM24.8562 40.6899V39.6212H25.497V39.736H24.9856V40.0971H25.449V40.2119H24.9856V40.6899H24.8562ZM25.9688 40.7066C25.8964 40.7066 25.8329 40.6894 25.7783 40.655C25.7241 40.6205 25.6816 40.5723 25.651 40.5104C25.6207 40.4485 25.6056 40.3761 25.6056 40.2933C25.6056 40.2098 25.6207 40.1369 25.651 40.0747C25.6816 40.0124 25.7241 39.964 25.7783 39.9296C25.8329 39.8952 25.8964 39.8779 25.9688 39.8779C26.0412 39.8779 26.1045 39.8952 26.1588 39.9296C26.2134 39.964 26.2558 40.0124 26.2861 40.0747C26.3167 40.1369 26.332 40.2098 26.332 40.2933C26.332 40.3761 26.3167 40.4485 26.2861 40.5104C26.2558 40.5723 26.2134 40.6205 26.1588 40.655C26.1045 40.6894 26.0412 40.7066 25.9688 40.7066ZM25.9688 40.596C26.0238 40.596 26.069 40.5819 26.1045 40.5537C26.14 40.5256 26.1662 40.4885 26.1833 40.4426C26.2003 40.3967 26.2089 40.3469 26.2089 40.2933C26.2089 40.2398 26.2003 40.1898 26.1833 40.1436C26.1662 40.0973 26.14 40.0599 26.1045 40.0314C26.069 40.0028 26.0238 39.9886 25.9688 39.9886C25.9138 39.9886 25.8686 40.0028 25.8331 40.0314C25.7976 40.0599 25.7714 40.0973 25.7543 40.1436C25.7373 40.1898 25.7288 40.2398 25.7288 40.2933C25.7288 40.3469 25.7373 40.3967 25.7543 40.4426C25.7714 40.4885 25.7976 40.5256 25.8331 40.5537C25.8686 40.5819 25.9138 40.596 25.9688 40.596ZM26.52 40.6899V39.8884H26.639V40.0094H26.6473C26.662 39.9698 26.6884 39.9376 26.7267 39.9129C26.7649 39.8882 26.8081 39.8758 26.8561 39.8758C26.8651 39.8758 26.8764 39.876 26.89 39.8764C26.9036 39.8767 26.9138 39.8772 26.9208 39.8779V40.0032C26.9166 40.0021 26.9071 40.0006 26.8921 39.9985C26.8775 39.996 26.862 39.9948 26.8457 39.9948C26.8067 39.9948 26.7719 40.003 26.7413 40.0194C26.711 40.0354 26.687 40.0576 26.6693 40.0862C26.6519 40.1143 26.6432 40.1465 26.6432 40.1827V40.6899H26.52ZM27.4383 39.736V39.6212H28.2399V39.736H27.9038V40.6899H27.7744V39.736H27.4383ZM28.6428 40.7066C28.5656 40.7066 28.4989 40.6896 28.4429 40.6555C28.3873 40.6211 28.3443 40.573 28.314 40.5115C28.2841 40.4495 28.2691 40.3775 28.2691 40.2954C28.2691 40.2133 28.2841 40.1409 28.314 40.0783C28.3443 40.0154 28.3864 39.9663 28.4403 39.9312C28.4946 39.8957 28.5579 39.8779 28.6303 39.8779C28.672 39.8779 28.7132 39.8849 28.7539 39.8988C28.7947 39.9127 28.8317 39.9353 28.8651 39.9666C28.8985 39.9976 28.9251 40.0387 28.9449 40.0898C28.9648 40.1409 28.9747 40.2039 28.9747 40.2787V40.3309H28.3568V40.2244H28.8494C28.8494 40.1792 28.8404 40.1389 28.8223 40.1034C28.8046 40.0679 28.7792 40.0399 28.7461 40.0194C28.7134 39.9988 28.6748 39.9886 28.6303 39.9886C28.5812 39.9886 28.5388 40.0007 28.5029 40.0251C28.4674 40.0491 28.4401 40.0804 28.421 40.119C28.4019 40.1576 28.3923 40.199 28.3923 40.2432V40.3142C28.3923 40.3747 28.4027 40.4261 28.4236 40.4682C28.4448 40.5099 28.4742 40.5417 28.5118 40.5637C28.5494 40.5852 28.593 40.596 28.6428 40.596C28.6751 40.596 28.7044 40.5915 28.7305 40.5824C28.7569 40.573 28.7797 40.5591 28.7988 40.5407C28.818 40.5219 28.8327 40.4986 28.8432 40.4708L28.9622 40.5042C28.9496 40.5445 28.9286 40.58 28.899 40.6106C28.8695 40.6409 28.8329 40.6645 28.7894 40.6816C28.7459 40.6983 28.6971 40.7066 28.6428 40.7066ZM29.3979 40.7087C29.3471 40.7087 29.301 40.6992 29.2596 40.68C29.2182 40.6605 29.1853 40.6325 29.161 40.596C29.1366 40.5591 29.1245 40.5146 29.1245 40.4624C29.1245 40.4165 29.1335 40.3793 29.1516 40.3507C29.1697 40.3219 29.1939 40.2992 29.2241 40.2829C29.2544 40.2665 29.2878 40.2544 29.3243 40.2464C29.3612 40.238 29.3983 40.2314 29.4355 40.2265C29.4842 40.2203 29.5237 40.2156 29.554 40.2124C29.5846 40.209 29.6068 40.2032 29.6208 40.1952C29.635 40.1872 29.6421 40.1733 29.6421 40.1535V40.1493C29.6421 40.0978 29.6281 40.0578 29.5999 40.0293C29.572 40.0007 29.5298 39.9865 29.4731 39.9865C29.4143 39.9865 29.3682 39.9994 29.3348 40.0251C29.3014 40.0508 29.2779 40.0783 29.2643 40.1076L29.1474 40.0658C29.1683 40.0171 29.1961 39.9792 29.2309 39.952C29.2661 39.9246 29.3043 39.9054 29.3457 39.8946C29.3875 39.8835 29.4285 39.8779 29.4689 39.8779C29.4946 39.8779 29.5242 39.8811 29.5576 39.8873C29.5914 39.8932 29.6239 39.9056 29.6552 39.9244C29.6869 39.9432 29.7131 39.9715 29.734 40.0094C29.7549 40.0474 29.7653 40.0982 29.7653 40.1618V40.6899H29.6421V40.5814H29.6359C29.6275 40.5988 29.6136 40.6174 29.5941 40.6372C29.5747 40.6571 29.5487 40.6739 29.5164 40.6879C29.484 40.7018 29.4445 40.7087 29.3979 40.7087ZM29.4167 40.5981C29.4654 40.5981 29.5065 40.5885 29.5399 40.5694C29.5736 40.5503 29.599 40.5256 29.6161 40.4953C29.6334 40.465 29.6421 40.4332 29.6421 40.3998V40.2871C29.6369 40.2933 29.6254 40.2991 29.6077 40.3043C29.5903 40.3092 29.5701 40.3135 29.5472 40.3173C29.5246 40.3208 29.5025 40.3239 29.4809 40.3267C29.4597 40.3292 29.4424 40.3313 29.4292 40.333C29.3972 40.3372 29.3673 40.344 29.3395 40.3533C29.312 40.3624 29.2897 40.3761 29.2727 40.3946C29.256 40.4127 29.2476 40.4374 29.2476 40.4687C29.2476 40.5115 29.2635 40.5438 29.2951 40.5657C29.3271 40.5873 29.3677 40.5981 29.4167 40.5981ZM30.3157 40.7066C30.2406 40.7066 30.1759 40.6889 30.1216 40.6534C30.0673 40.6179 30.0256 40.569 29.9964 40.5068C29.9671 40.4445 29.9525 40.3733 29.9525 40.2933C29.9525 40.2119 29.9675 40.1401 29.9974 40.0778C30.0277 40.0152 30.0698 39.9663 30.1237 39.9312C30.178 39.8957 30.2413 39.8779 30.3136 39.8779C30.37 39.8779 30.4208 39.8884 30.466 39.9092C30.5113 39.9301 30.5483 39.9593 30.5772 39.9969C30.6061 40.0345 30.624 40.0783 30.6309 40.1284H30.5078C30.4984 40.0919 30.4775 40.0595 30.4452 40.0314C30.4131 40.0028 30.37 39.9886 30.3157 39.9886C30.2677 39.9886 30.2256 40.0011 30.1894 40.0261C30.1536 40.0508 30.1256 40.0858 30.1054 40.131C30.0856 40.1759 30.0757 40.2286 30.0757 40.2892C30.0757 40.3511 30.0854 40.405 30.1049 40.4509C30.1247 40.4969 30.1526 40.5325 30.1884 40.5579C30.2246 40.5833 30.267 40.596 30.3157 40.596C30.3477 40.596 30.3768 40.5904 30.4029 40.5793C30.429 40.5682 30.4511 40.5522 30.4692 40.5313C30.4872 40.5104 30.5001 40.4854 30.5078 40.4562H30.6309C30.624 40.5035 30.6068 40.5461 30.5793 40.584C30.5521 40.6216 30.5161 40.6515 30.4712 40.6738C30.4267 40.6957 30.3749 40.7066 30.3157 40.7066ZM30.9341 40.2077V40.6899H30.811V39.6212H30.9341V40.0136H30.9446C30.9634 39.9722 30.9915 39.9393 31.0291 39.915C31.067 39.8903 31.1175 39.8779 31.1804 39.8779C31.2351 39.8779 31.2829 39.8889 31.324 39.9108C31.365 39.9324 31.3968 39.9656 31.4195 40.0105C31.4424 40.055 31.4539 40.1117 31.4539 40.1806V40.6899H31.3307V40.189C31.3307 40.1253 31.3142 40.0761 31.2812 40.0413C31.2485 40.0061 31.2031 39.9886 31.145 39.9886C31.1046 39.9886 31.0684 39.9971 31.0364 40.0141C31.0048 40.0312 30.9797 40.0561 30.9613 40.0888C30.9432 40.1215 30.9341 40.1611 30.9341 40.2077ZM32.0153 40.7066C31.938 40.7066 31.8714 40.6896 31.8154 40.6555C31.7597 40.6211 31.7168 40.573 31.6865 40.5115C31.6566 40.4495 31.6416 40.3775 31.6416 40.2954C31.6416 40.2133 31.6566 40.1409 31.6865 40.0783C31.7168 40.0154 31.7589 39.9663 31.8128 39.9312C31.8671 39.8957 31.9304 39.8779 32.0028 39.8779C32.0445 39.8779 32.0857 39.8849 32.1264 39.8988C32.1671 39.9127 32.2042 39.9353 32.2376 39.9666C32.271 39.9976 32.2976 40.0387 32.3174 40.0898C32.3373 40.1409 32.3472 40.2039 32.3472 40.2787V40.3309H31.7293V40.2244H32.2219C32.2219 40.1792 32.2129 40.1389 32.1948 40.1034C32.1771 40.0679 32.1517 40.0399 32.1186 40.0194C32.0859 39.9988 32.0473 39.9886 32.0028 39.9886C31.9537 39.9886 31.9113 40.0007 31.8754 40.0251C31.8399 40.0491 31.8126 40.0804 31.7935 40.119C31.7744 40.1576 31.7648 40.199 31.7648 40.2432V40.3142C31.7648 40.3747 31.7752 40.4261 31.7961 40.4682C31.8173 40.5099 31.8467 40.5417 31.8843 40.5637C31.9219 40.5852 31.9655 40.596 32.0153 40.596C32.0476 40.596 32.0769 40.5915 32.103 40.5824C32.1294 40.573 32.1522 40.5591 32.1713 40.5407C32.1905 40.5219 32.2052 40.4986 32.2157 40.4708L32.3347 40.5042C32.3221 40.5445 32.3011 40.58 32.2715 40.6106C32.2419 40.6409 32.2054 40.6645 32.1619 40.6816C32.1184 40.6983 32.0696 40.7066 32.0153 40.7066ZM32.5345 40.6899V39.8884H32.6535V40.0094H32.6619C32.6765 39.9698 32.7029 39.9376 32.7412 39.9129C32.7795 39.8882 32.8226 39.8758 32.8706 39.8758C32.8797 39.8758 32.891 39.876 32.9045 39.8764C32.9181 39.8767 32.9284 39.8772 32.9353 39.8779V40.0032C32.9311 40.0021 32.9216 40.0006 32.9066 39.9985C32.892 39.996 32.8765 39.9948 32.8602 39.9948C32.8212 39.9948 32.7864 40.003 32.7558 40.0194C32.7255 40.0354 32.7015 40.0576 32.6838 40.0862C32.6664 40.1143 32.6577 40.1465 32.6577 40.1827V40.6899H32.5345ZM33.6491 40.0679L33.5385 40.0992C33.5315 40.0808 33.5212 40.0628 33.5077 40.0454C33.4944 40.0277 33.4763 40.0131 33.4534 40.0016C33.4304 39.9901 33.401 39.9844 33.3652 39.9844C33.3161 39.9844 33.2753 39.9957 33.2426 40.0183C33.2102 40.0406 33.194 40.0689 33.194 40.1034C33.194 40.134 33.2052 40.1582 33.2274 40.1759C33.2497 40.1937 33.2845 40.2084 33.3318 40.2203L33.4508 40.2495C33.5224 40.2669 33.5759 40.2935 33.611 40.3293C33.6461 40.3648 33.6637 40.4106 33.6637 40.4666C33.6637 40.5125 33.6505 40.5536 33.624 40.5897C33.5979 40.6259 33.5614 40.6545 33.5144 40.6753C33.4675 40.6962 33.4129 40.7066 33.3506 40.7066C33.2688 40.7066 33.2012 40.6889 33.1476 40.6534C33.094 40.6179 33.0601 40.5661 33.0458 40.4979L33.1627 40.4687C33.1738 40.5118 33.1949 40.5442 33.2259 40.5657C33.2572 40.5873 33.298 40.5981 33.3485 40.5981C33.4059 40.5981 33.4515 40.5859 33.4852 40.5616C33.5193 40.5369 33.5364 40.5073 33.5364 40.4728C33.5364 40.445 33.5266 40.4217 33.5071 40.4029C33.4877 40.3838 33.4577 40.3695 33.4174 40.3601L33.2838 40.3288C33.2104 40.3114 33.1565 40.2845 33.122 40.2479C33.0879 40.2111 33.0709 40.165 33.0709 40.1096C33.0709 40.0644 33.0836 40.0244 33.109 39.9896C33.1347 39.9548 33.1697 39.9275 33.2139 39.9077C33.2584 39.8878 33.3088 39.8779 33.3652 39.8779C33.4445 39.8779 33.5068 39.8953 33.552 39.9301C33.5976 39.9649 33.6299 40.0108 33.6491 40.0679Z" fill="white"/>
<path d="M12.4824 38.1853L16.623 38.1627L25.7309 38.1416L34.8388 38.1627L38.9794 38.1853L34.8388 38.2094L25.7309 38.2304L16.623 38.2094L12.4824 38.1853Z" fill="white"/>
<defs>
<linearGradient id="paint0_linear_2197_30178" x1="40.1016" y1="3.4337" x2="40.1016" y2="29.0619" gradientUnits="userSpaceOnUse">
<stop stop-color="white"/>
<stop offset="1" stop-color="white"/>
</linearGradient>
<linearGradient id="paint1_linear_2197_30178" x1="12.8134" y1="3.15605" x2="12.8134" y2="28.3431" gradientUnits="userSpaceOnUse">
<stop stop-color="white"/>
<stop offset="1" stop-color="white"/>
</linearGradient>
<clipPath id="clip0_2197_30178">
<rect width="53" height="28.9091" fill="white" transform="translate(0 -0.000976562)"/>
</clipPath>
</defs>
</svg>
